<svg xmlns="http://www.w3.org/2000/svg" viewBox="0 0 692.76 650.03"><defs><style>.cls-1{fill:#f2f2f2;}.cls-2{fill:#dc8e6c;}.cls-3{fill:#efefef;}.cls-4{fill:#d8d8d8;}.cls-5{fill:#ccc;}.cls-11,.cls-12,.cls-6{fill:#fff;}.cls-13,.cls-7{fill:none;}.cls-7{stroke:#d8d8d8;stroke-linecap:round;}.cls-11,.cls-12,.cls-13,.cls-7{stroke-miterlimit:10;}.cls-11,.cls-13,.cls-7{stroke-width:2px;}.cls-8{fill:#d37c59;}.cls-9{fill:#78d5dd;}.cls-10{fill:#fdd28a;}.cls-11,.cls-12,.cls-13{stroke:#ccc;}.cls-12{stroke-width:8px;}</style></defs><title>doctor-colour</title><g id="Layer_2" data-name="Layer 2"><g id="vector"><path class="cls-1" d="M502.11,119c39.47,27,80.25,50.19,120.69,88.37s80.57,91.29,67.41,132.06c-13.32,40.61-79.91,68.87-132.38,84-52.63,15.11-91.13,16.89-124.27,18.19-33.13,1.14-61.07,1.79-118.25,21.44-57,19.82-143.27,59-182.58,41.75S100.89,414,85.62,340.59C70.19,267.33,31.86,194.07,42.74,132.34,53.79,70.62,113.89,20.1,179.35,5.15,245-9.95,315.8,10.51,370.21,36S462.8,92.22,502.11,119Z"/><path class="cls-2" d="M614.73,108.88c0-20-12.27-36.22-27.39-36.22S560,88.88,560,108.88c0,10.51,3.38,20,8.78,26.58-1.89,14-6.76,33.6-7.59,37.11,0,0,44.43,31,44.43,2.77,0-21.42,1.49-35,2.84-43.32A43.72,43.72,0,0,0,614.73,108.88Z"/><rect class="cls-3" x="555.08" y="75.12" width="45.19" height="59.07" rx="3.79" ry="3.79"/><path class="cls-4" d="M401.09,242c9.45-3.38,78.34-3.38,134.39,31.74,3.38-13.51,16.21-110.49,16.21-110.49L609.1,167s12.83,125.62-12.83,190.45c-12.16,25.67-152-27.69-152-27.69Z"/><path class="cls-5" d="M343.18,221.12c173.49-5.64,165.37,397.65,146.65,414.75s-251.67,19.86-267.14,2S171.4,226.71,343.18,221.12Z"/><path class="cls-6" d="M370.44,223.6c-17.68-4.73-39.17-2.22-51.31,1,7.48,22.36,43,295.36,46.39,425.23,12.42-.21,30.7-.65,45.65-1.55C410.22,549.07,403.7,330.28,370.44,223.6Z"/><path class="cls-7" d="M354,259.51c16.84,85.08,33.68,278.73,36.22,366.35"/><path class="cls-8" d="M370.85,241.37c0,8-46.42,8-46.42-.74s-6.24-73.58-6.24-73.58l46.22-3.8S370.84,236.29,370.85,241.37Z"/><path d="M427.55,179.86c.39-4.48.6-9,.6-13.66,0-61.71-36.49-111.75-81.5-111.75s-81.5,50-81.5,111.75a153.92,153.92,0,0,0,1.4,20.69Z"/><path class="cls-2" d="M412,117.77c-10-3.94-19.69-8.18-27.57-16.06-20.62,22.68-56.79,49.3-69.95,57.88,5.26,34,25.39,59.36,49.43,59.36,28.05,0,50.79-34.47,50.79-77a113.77,113.77,0,0,0-2.56-24.13Z"/><circle cx="311.62" cy="40.62" r="21.77"/><circle class="cls-2" cx="320.3" cy="151.62" r="11.8"/><rect class="cls-6" x="279.35" y="378.32" width="108.07" height="159.18" transform="translate(180.77 -87.56) rotate(20.43)"/><rect class="cls-9" x="334.95" y="375.84" width="52.16" height="15.69" transform="translate(156.61 -101.87) rotate(20.43)"/><rect class="cls-10" x="290.47" y="386.61" width="86.5" height="140.78" transform="translate(180.48 -87.74) rotate(20.43)"/><path class="cls-2" d="M350.38,459c13.57-.71,28.12-13.6,41.79-13.6,16.36,0,27.85,10.36,27.85,23.32,0,27.35-21.37,35.3-29.47,35.3-13.6,0-15.89-2.09-18.42-3.88-4.12,1-10.18,6.15-26.33,6.15S350.38,459,350.38,459Z"/><path class="cls-4" d="M255.09,255.34c-70.64-16.61-96.34,229-85.08,250.24s171.21,14.21,180.17,12.51c2.58-10,5.63-56.93,2.5-62.56-4.4-1.73-81.54-2.68-81.54-2.68,2-8,27.07-109.42,27.92-121C303,277.5,294.7,264.66,255.09,255.34Z"/><rect class="cls-5" x="548.27" y="63.51" width="57.56" height="15.15" rx="7.57" ry="7.57"/><rect class="cls-9" x="579.11" y="123.49" width="19.86" height="5.47" rx="2.73" ry="2.73" transform="translate(15.81 311.43) rotate(-30)"/><rect class="cls-9" x="579.48" y="107.74" width="19.86" height="5.47" rx="2.73" ry="2.73" transform="translate(103.81 -241.39) rotate(25.31)"/><rect class="cls-9" x="551.46" y="119.94" width="19.86" height="5.47" rx="2.73" ry="2.73" transform="translate(604.53 695.69) rotate(-106.63)"/><rect class="cls-9" x="560.92" y="119.94" width="19.86" height="5.47" rx="2.73" ry="2.73" transform="translate(842.04 639.76) rotate(-129.8)"/><rect class="cls-9" x="572.55" y="115.29" width="19.86" height="5.47" rx="2.73" ry="2.73" transform="translate(1155.66 275.16) rotate(-176.12)"/><polyline class="cls-7" points="325.64 248.18 346.65 256 354.01 249.97 361.59 256 372.12 245.28"/><circle class="cls-1" cx="14.73" cy="339.89" r="14.73"/><circle class="cls-1" cx="37.45" cy="309.96" r="5.82"/><circle class="cls-1" cx="657.18" cy="404.55" r="5.82"/><circle class="cls-1" cx="457.74" cy="48.97" r="18.95"/><circle class="cls-1" cx="499.79" cy="24.81" r="9.47"/><rect class="cls-11" x="54.71" y="24.81" width="139.31" height="79.85" rx="12" ry="12"/><line class="cls-12" x1="124.36" y1="48.57" x2="124.36" y2="80.9"/><line class="cls-12" x1="108.2" y1="64.74" x2="140.52" y2="64.74"/><circle class="cls-13" cx="165.03" cy="45.33" r="2.22"/><circle class="cls-13" cx="180.15" cy="40.2" r="4.68"/><circle class="cls-13" cx="172.82" cy="87.2" r="2.93"/><line class="cls-13" x1="65.7" y1="52.61" x2="96.99" y2="52.61"/><line class="cls-13" x1="65.7" y1="58.67" x2="96.99" y2="58.67"/><line class="cls-13" x1="65.7" y1="64.74" x2="96.99" y2="64.74"/><line class="cls-13" x1="65.7" y1="70.8" x2="96.99" y2="70.8"/><line class="cls-13" x1="65.7" y1="76.87" x2="84.86" y2="76.87"/><rect class="cls-13" x="172.82" y="51.42" width="5.71" height="25.44" rx="2.86" ry="2.86" transform="translate(64.4 -86.17) rotate(33.43)"/><line class="cls-13" x1="174.96" y1="60.04" x2="179.73" y2="63.19"/><line class="cls-13" x1="172.82" y1="104.66" x2="242.22" y2="134.19"/></g></g></svg>